<?xml version="1.0" encoding="UTF-8"?>
<svg version="1.1" xmlns="http://www.w3.org/2000/svg" width="512" height="512">
<path d="M0 0 C1.94124482 -0.00271461 3.88248861 -0.00627817 5.82373047 -0.01062012 C11.06548707 -0.01969108 16.30716442 -0.01622163 21.5489223 -0.00986195 C27.05345535 -0.00477372 32.55798192 -0.00950128 38.06251526 -0.01263428 C47.30487273 -0.01626603 56.54719818 -0.01149593 65.78955078 -0.00195312 C76.44935533 0.00892666 87.10908334 0.00540609 97.76888603 -0.00560594 C106.94718116 -0.01470524 116.12545334 -0.01595109 125.30375153 -0.0107286 C130.77408702 -0.00762299 136.24438663 -0.00716053 141.71471977 -0.01380157 C146.86039914 -0.01961284 152.0059806 -0.01550945 157.15164948 -0.00401306 C159.03127696 -0.00138645 160.9109128 -0.00209702 162.79053688 -0.00653839 C190.96295336 -0.06692886 190.96295336 -0.06692886 203.57641602 8.25878906 C204.17196289 8.65066406 204.76750977 9.04253906 205.38110352 9.44628906 C213.00170077 15.13212328 218.06648164 25.01585583 219.57641602 34.25878906 C219.66600435 36.17608239 219.70544691 38.09606099 219.70784378 40.01544476 C219.71168493 41.17223695 219.71552607 42.32902913 219.71948361 43.52087563 C219.71861713 44.78739411 219.71775065 46.0539126 219.71685791 47.35881042 C219.71944264 48.72130855 219.7224561 50.08380591 219.72586131 51.44630224 C219.73392196 55.1896241 219.73572036 58.93292678 219.73645878 62.6762563 C219.73831096 66.7138941 219.74585914 70.75152199 219.75259399 74.78915405 C219.76617126 83.61775888 219.77220111 92.44635915 219.77660465 101.27497268 C219.77936813 106.78866087 219.78360568 112.30234731 219.78810883 117.81603432 C219.80030076 133.08483743 219.81060018 148.35363914 219.81398392 163.62244701 C219.81420348 164.59953511 219.81442305 165.57662321 219.81464927 166.58332004 C219.81486755 167.56273273 219.81508582 168.54214542 219.81531072 169.55123729 C219.81575418 171.53586718 219.81620074 173.52049706 219.81665039 175.50512695 C219.81687182 176.48956983 219.81709325 177.47401271 219.81732139 178.48828719 C219.82126884 194.43738881 219.8387216 210.38644473 219.86200991 226.33552869 C219.88573216 242.71413683 219.89818617 259.09272204 219.89935184 275.47134763 C219.90026811 284.66574519 219.90600845 293.8600832 219.92417145 303.05446434 C219.93958422 310.88417884 219.94468595 318.71381538 219.93643335 326.54354217 C219.932531 330.53667496 219.93343607 334.52965081 219.94749069 338.52276421 C219.96025454 342.18269927 219.95901051 345.84235988 219.94689998 349.5022947 C219.94402654 351.44420262 219.95585993 353.3861154 219.96832204 355.32798547 C219.89627911 368.11706619 216.70211519 378.99632023 207.54125977 388.33300781 C195.30245117 398.57273697 182.74553931 398.9841937 167.56054688 398.88989258 C165.4485667 398.89503805 163.33659082 398.90232404 161.22462463 398.91157532 C155.51800381 398.93001622 149.81185301 398.91719721 144.10525203 398.89748502 C138.11797889 398.88103896 132.13073413 398.88991959 126.14344788 398.89500427 C116.09230078 398.89951822 106.04134021 398.88369777 95.99023438 398.85571289 C84.38737027 398.82365561 72.78484232 398.82368252 61.18195432 398.84092766 C49.99596585 398.85681736 38.81010004 398.85004398 27.6241169 398.83299065 C22.87437212 398.82613719 18.12472616 398.82713506 13.37498283 398.8345356 C7.77777074 398.8422235 2.18093907 398.82999037 -3.41620827 398.80268669 C-5.46437196 398.7958284 -7.51257136 398.79567729 -9.5607338 398.80290222 C-24.3661195 398.84909223 -36.18734133 397.98525889 -47.42358398 387.25878906 C-58.46172605 375.69606202 -59.57485645 362.5623554 -59.56402588 347.32481384 C-59.566997 346.01789048 -59.56996812 344.71096712 -59.57302928 343.36444002 C-59.58106854 339.7473749 -59.58288713 336.13032966 -59.58362675 332.51325667 C-59.58548269 328.60782126 -59.59303277 324.70239604 -59.59976196 320.79696655 C-59.61332428 312.26159071 -59.61936682 303.72621958 -59.62377262 295.19083476 C-59.62653879 289.85700999 -59.63077684 284.52318703 -59.63527679 279.18936348 C-59.64746707 264.40945392 -59.65776663 249.62954579 -59.66115189 234.84963131 C-59.66137145 233.90429581 -59.66159102 232.95896032 -59.66181724 231.98497829 C-59.66203552 231.03743312 -59.66225379 230.08988795 -59.66247869 229.11362928 C-59.66292214 227.19367278 -59.66336871 225.27371627 -59.66381836 223.35375977 C-59.66403979 222.40140328 -59.66426122 221.4490468 -59.66448936 220.46783102 C-59.66843516 205.04534672 -59.68588364 189.62290972 -59.70917788 174.20044368 C-59.73292356 158.35059866 -59.74535521 142.50077734 -59.7465198 126.65091425 C-59.74743479 117.75823136 -59.7531426 108.86561011 -59.77133942 99.97294426 C-59.78678391 92.39884452 -59.79183533 84.82482548 -59.78360131 77.25071298 C-59.77971006 73.39073621 -59.78054922 69.53092172 -59.79465866 65.67096519 C-59.8098573 61.47441114 -59.80148603 57.27821846 -59.79107666 53.08164978 C-59.79913306 51.87821 -59.80718947 50.67477021 -59.81549001 49.43486255 C-59.73639957 35.73199694 -57.68659983 23.07764796 -48.12670898 12.78613281 C-34.30369787 -0.41441351 -18.06379198 -0.04263264 0 0 Z M44.57641602 50.25878906 C36.17953492 60.30086061 34.40268945 73.66205239 35.34008789 86.31396484 C35.90655291 90.9755974 37.54179721 95.06582463 39.57641602 99.25878906 C39.95797852 100.06574219 40.33954102 100.87269531 40.73266602 101.70410156 C41.64463246 103.57363276 42.60475602 105.4195755 43.57641602 107.25878906 C42.4684668 107.84273437 42.4684668 107.84273437 41.33813477 108.43847656 C22.40850258 118.8774351 9.12005485 135.40617627 2.5690918 156.07568359 C0.64148702 162.78754578 -0.42973481 168.76641769 2.57641602 175.25878906 C6.02928808 180.52374282 9.66422218 183.96390876 15.57641602 186.25878906 C19.74885666 186.7051232 23.90302315 186.66846715 28.09594727 186.64697266 C29.35514984 186.65222961 30.61435242 186.65748657 31.91171265 186.66290283 C35.35388793 186.67654036 38.79579245 186.67129271 42.23797226 186.66176558 C45.84664367 186.6541504 49.45529248 186.66121974 53.06396484 186.66592407 C59.12317043 186.67137623 65.18226618 186.66420424 71.24145508 186.64990234 C78.23863305 186.63357679 85.23554875 186.63886568 92.23272038 186.65538156 C98.24904399 186.66901187 104.26528882 186.67090856 110.28162289 186.66306555 C113.87111139 186.65839749 117.46047677 186.65774019 121.04995728 186.66767502 C125.05242349 186.67797984 129.0544402 186.66368219 133.05688477 186.64697266 C134.83378189 186.6560817 134.83378189 186.6560817 136.64657593 186.66537476 C143.3224603 186.61372524 148.27747831 186.29691331 153.40454102 181.57519531 C153.87375977 180.99640625 154.34297852 180.41761719 154.82641602 179.82128906 C155.30594727 179.24507812 155.78547852 178.66886719 156.27954102 178.07519531 C160.00343211 172.85950447 160.24609245 168.54018446 159.57641602 162.25878906 C156.47098525 147.73578652 149.51371493 135.16897039 139.57641602 124.25878906 C138.96282227 123.55238281 138.34922852 122.84597656 137.71704102 122.11816406 C131.9394288 115.84673884 124.80896739 111.64707866 117.57641602 107.25878906 C119.4447284 102.53152424 121.44809214 97.86592829 123.45532227 93.19628906 C128.04497079 81.17045042 125.54963804 68.64273522 120.51391602 57.19628906 C114.58802038 46.10287135 104.91866228 39.47164838 93.23657227 35.45410156 C74.97232729 30.63207667 57.34563663 36.96685181 44.57641602 50.25878906 Z M-14.42358398 213.25878906 C-15.67769967 216.62053044 -15.67769967 216.62053044 -15.42358398 220.25878906 C-13.97846341 223.08033579 -13.97846341 223.08033579 -11.42358398 225.25878906 C-8.74674936 225.76097653 -6.69737762 225.9323638 -4.02209473 225.88697815 C-3.27420921 225.89407254 -2.52632369 225.90116692 -1.75577497 225.90847629 C0.75196147 225.92608815 3.25815443 225.90793674 5.76586914 225.88989258 C7.56290901 225.89503021 9.35994384 225.90231031 11.15696716 225.91157532 C16.03926372 225.93011746 20.92101541 225.91713303 25.80328941 225.89748502 C30.90902739 225.88112041 36.01473026 225.88990836 41.1204834 225.89500427 C49.69523846 225.89952768 58.26977555 225.88364006 66.84448242 225.85571289 C76.76253811 225.8236599 86.68020064 225.82367593 96.59828424 225.84092766 C106.13335768 225.85678326 115.66828677 225.85006541 125.20335388 225.83299065 C129.26390925 225.82611229 133.32434918 225.82716065 137.38490295 225.8345356 C142.16534176 225.84218838 146.94533233 225.83010531 151.72569466 225.80268669 C153.48169181 225.79579118 155.23773074 225.79571735 156.99372673 225.80290222 C159.38796279 225.81157078 161.78080726 225.79568668 164.17492676 225.77345276 C164.87259045 225.78169353 165.57025414 225.78993429 166.28905916 225.79842478 C169.6540072 225.74060631 171.31100545 225.46977868 173.98041534 223.34771633 C175.66719059 221.13997866 176.49224848 220.03631766 176.57641602 217.25878906 C174.93565109 213.81318272 173.79129159 212.40203945 170.57641602 210.25878906 C167.2759511 209.95180616 167.2759511 209.95180616 163.415802 209.99809265 C162.68172713 209.9942671 161.94765226 209.99044156 161.1913327 209.98650008 C158.72473222 209.97615844 156.25836402 209.98016441 153.79174805 209.98413086 C152.02603947 209.97978499 150.26033278 209.97460226 148.49462891 209.96864319 C143.69294991 209.95522755 138.89134949 209.95467743 134.0896554 209.95720649 C130.08362055 209.9582746 126.07760171 209.95339686 122.07157028 209.94860107 C112.62118772 209.93749672 103.17084491 209.93707349 93.72045898 209.94311523 C83.96667228 209.94915503 74.21302983 209.93684597 64.45926774 209.91554517 C56.08976226 209.89793849 47.72030273 209.89192639 39.35077941 209.89518291 C34.35002529 209.89699762 29.34937402 209.89434104 24.34863663 209.88046837 C19.6454596 209.86791006 14.9425076 209.86981518 10.23933411 209.88287926 C8.51276957 209.88524906 6.78618929 209.88249593 5.05964279 209.87425613 C2.70316529 209.86382076 0.34744732 209.87186304 -2.00900269 209.88456726 C-3.32787916 209.88439952 -4.64675564 209.88423178 -6.00559807 209.88405895 C-9.66608639 210.28537576 -11.56467091 210.96465377 -14.42358398 213.25878906 Z M-14.04785156 257.1036377 C-15.94054787 260.06863799 -15.99889062 261.80694927 -15.42358398 265.25878906 C-13.55648488 267.56154462 -12.06710657 268.93702777 -9.42358398 270.25878906 C-8.01587101 270.35680531 -6.6036614 270.39380312 -5.19255066 270.39923096 C-4.3051268 270.4049411 -3.41770294 270.41065125 -2.50338745 270.41653442 C-1.52725494 270.41765228 -0.55112244 270.41877014 0.45458984 270.41992188 C1.48072891 270.42488678 2.50686798 270.42985168 3.56410217 270.43496704 C6.97055727 270.44961361 10.3769658 270.45639498 13.78344727 270.46191406 C16.14515688 270.46766366 18.50686647 270.47342141 20.86857605 270.47918701 C25.82596047 270.48970424 30.78332864 270.49554212 35.74072266 270.49902344 C42.09635293 270.5045083 48.45176897 270.52853331 54.80733204 270.55699539 C59.6877658 270.57560979 64.56814786 270.58082675 69.44861412 270.58235931 C71.79179747 270.5853893 74.13497983 270.5934294 76.47812843 270.60654449 C79.75560466 270.62357888 83.03255619 270.62173085 86.31005859 270.61523438 C87.76514832 270.62905655 87.76514832 270.62905655 89.24963379 270.64315796 C94.67362948 270.60944033 98.54031068 270.2948944 102.57641602 266.25878906 C103.0370023 261.42387275 103.0370023 261.42387275 101.21240234 257.06066895 C97.06746598 254.22731683 92.9973129 254.70177388 88.08813477 254.74121094 C86.48755722 254.73069702 86.48755722 254.73069702 84.85464478 254.7199707 C81.32413788 254.70235192 77.7944312 254.71402789 74.26391602 254.72753906 C71.81298671 254.72484528 69.36205845 254.72096382 66.91113281 254.71594238 C61.77308991 254.71004204 56.63532505 254.71862794 51.49731445 254.73730469 C44.90610117 254.76009405 38.31553935 254.74697391 31.72434998 254.72301483 C26.66291379 254.70857162 21.60163246 254.71315616 16.54019165 254.723526 C14.10966922 254.72619735 11.67913281 254.72290926 9.24862671 254.71360779 C5.85360386 254.70346699 2.45964102 254.71891014 -0.93530273 254.74121094 C-1.94321869 254.73311401 -2.95113464 254.72501709 -3.98959351 254.7166748 C-9.36698268 254.72269858 -9.36698268 254.72269858 -14.04785156 257.1036377 Z M-14.42358398 302.25878906 C-15.76018543 305.61471769 -15.76018543 305.61471769 -15.42358398 309.25878906 C-12.79877432 312.71633275 -11.29237043 314.10088102 -6.97715664 314.88520145 C-5.63162459 314.91125777 -4.28539094 314.91003058 -2.93980408 314.88697815 C-1.82281949 314.89761973 -1.82281949 314.89761973 -0.68326956 314.90847629 C1.80754736 314.92605393 4.29680326 314.90795427 6.78759766 314.88989258 C8.57493297 314.89503148 10.36226321 314.90231253 12.14958191 314.91157532 C17.00083 314.93010001 21.85152898 314.91714455 26.70275426 314.89748502 C31.77778982 314.88110859 36.85279034 314.88990989 41.92784119 314.89500427 C50.44954204 314.89952594 58.97102345 314.8836498 67.49267578 314.85571289 C77.34883702 314.82365042 87.20460266 314.82368048 97.06079203 314.84092766 C106.53873668 314.85678285 116.01653612 314.85006634 125.49447441 314.83299065 C129.52991024 314.82611303 133.56522992 314.82715986 137.60066414 314.8345356 C142.35074861 314.8421882 147.10038198 314.83010593 151.85038948 314.80268669 C153.59509949 314.79579138 155.33985155 314.79571714 157.08456039 314.80290222 C159.46341943 314.81157114 161.84087802 314.79568624 164.21961975 314.77345276 C165.25925569 314.78581391 165.25925569 314.78581391 166.31989437 314.79842478 C169.67509565 314.74040379 171.3172547 314.46505046 173.97762203 312.34771633 C175.66728169 310.14006721 176.492201 309.03788452 176.57641602 306.25878906 C174.93565109 302.81318272 173.79129159 301.40203945 170.57641602 299.25878906 C167.2759511 298.95180616 167.2759511 298.95180616 163.415802 298.99809265 C162.68172713 298.9942671 161.94765226 298.99044156 161.1913327 298.98650008 C158.72473222 298.97615844 156.25836402 298.98016441 153.79174805 298.98413086 C152.02603947 298.97978499 150.26033278 298.97460226 148.49462891 298.96864319 C143.69294991 298.95522755 138.89134949 298.95467743 134.0896554 298.95720649 C130.08362055 298.9582746 126.07760171 298.95339686 122.07157028 298.94860107 C112.62118772 298.93749672 103.17084491 298.93707349 93.72045898 298.94311523 C83.96667228 298.94915503 74.21302983 298.93684597 64.45926774 298.91554517 C56.08976226 298.89793849 47.72030273 298.89192639 39.35077941 298.89518291 C34.35002529 298.89699762 29.34937402 298.89434104 24.34863663 298.88046837 C19.6454596 298.86791006 14.9425076 298.86981518 10.23933411 298.88287926 C8.51276957 298.88524906 6.78618929 298.88249593 5.05964279 298.87425613 C2.70316529 298.86382076 0.34744732 298.87186304 -2.00900269 298.88456726 C-3.32787916 298.88439952 -4.64675564 298.88423178 -6.00559807 298.88405895 C-9.6669066 299.28546568 -11.56233001 299.96703219 -14.42358398 302.25878906 Z M-14.04785156 346.63807678 C-15.59454741 349.58446718 -16.09287436 350.9959985 -15.42358398 354.25878906 C-13.17579858 357.04914335 -11.84628382 358.11788912 -8.42358398 359.25878906 C-6.98815888 359.35335279 -5.54878572 359.39363767 -4.11026001 359.39923096 C-3.22987564 359.4049411 -2.34949127 359.41065125 -1.44242859 359.41653442 C0.00235115 359.41821121 0.00235115 359.41821121 1.47631836 359.41992188 C2.49284988 359.42488678 3.50938141 359.42985168 4.55671692 359.43496704 C7.92526929 359.44959271 11.29377459 359.45639103 14.66235352 359.46191406 C17.00021364 359.46766476 19.33807375 359.47342251 21.67593384 359.47918701 C26.58026347 359.48969787 31.4845767 359.49554012 36.38891602 359.49902344 C42.67613726 359.50451118 48.96314226 359.52854501 55.25029564 359.55699539 C60.08011511 359.57560879 64.90988234 359.58082666 69.73973465 359.58235931 C72.05779834 359.58538882 74.37586106 359.59342733 76.69388962 359.60654449 C79.93533596 359.62357903 83.1762518 359.62173099 86.41772461 359.61523438 C87.37686264 359.62444916 88.33600067 359.63366394 89.32420349 359.64315796 C94.20206291 359.6124979 97.65627175 359.51826275 101.57641602 356.25878906 C102.99683422 353.41795265 102.89093874 351.40401629 102.57641602 348.25878906 C101.27609699 345.88753239 101.27609699 345.88753239 98.57641602 344.25878906 C95.08612999 343.64610493 91.62421333 343.70244701 88.08813477 343.7253418 C87.02108307 343.71672623 85.95403137 343.70811066 84.85464478 343.69923401 C81.32415579 343.6765135 77.79445659 343.68332412 74.26391602 343.69238281 C71.81298587 343.68715017 69.36205774 343.68087502 66.91113281 343.67359924 C61.773097 343.6631839 56.63533795 343.66777339 51.49731445 343.68237305 C44.9060035 343.69956706 38.31556371 343.67606268 31.72434998 343.64088345 C26.66290486 343.61894685 21.60166942 343.62034187 16.54019165 343.62864876 C14.10966028 343.62947023 11.67911381 343.62256971 9.24862671 343.60787773 C5.85343501 343.59050072 2.45982466 343.60491892 -0.93530273 343.62768555 C-1.94321869 343.61599335 -2.95113464 343.60430115 -3.98959351 343.59225464 C-9.55876491 343.59074769 -9.55876491 343.59074769 -14.04785156 346.63807678 Z " fill="#FFFFFF" transform="translate(120.423583984375,81.7412109375)"/>
<path d="M0 0 C3.52968096 0.62128551 7.06241549 1.2247395 10.59481311 1.83035064 C17.33291737 2.98819908 24.06831449 4.16105503 30.8028056 5.33971733 C38.94399682 6.76392427 47.08829022 8.17003021 55.23276782 9.57529998 C64.01669728 11.09124595 72.80018512 12.60955024 81.58155322 14.1402719 C95.80130173 16.61719224 110.02524549 19.06070258 124.26615655 21.41327178 C126.54656742 21.79030516 128.82675369 22.16866667 131.10686278 22.5475204 C131.84750891 22.67055114 132.58815504 22.79358189 133.35124499 22.92034084 C134.82860046 23.16574963 136.30594944 23.41119752 137.78329176 23.65668553 C142.03272176 24.36179047 146.28357171 25.05737172 150.53574777 25.74571061 C153.77130409 26.27217453 157.00463202 26.81204599 160.23838305 27.3494699 C161.37960305 27.53071347 162.52082305 27.71195704 163.69662547 27.89869285 C176.15079959 29.99458451 187.14025612 33.36880191 195.30503345 43.4678781 C203.05702576 54.55724041 203.66255091 65.30488113 201.53769946 78.27549529 C201.35659153 79.43541362 201.1754836 80.59533195 200.98888755 81.79039931 C200.36057843 85.76904268 199.71081326 89.74369536 199.05503345 93.7178781 C198.93766503 94.4326941 198.82029661 95.1475101 198.69937158 95.88398719 C196.77760131 107.58746643 194.79982009 119.28129081 192.81185961 130.97368073 C191.98945107 135.81452987 191.1703397 140.65593713 190.35076404 145.49726653 C188.41616108 156.92105143 186.47646222 168.34396849 184.53618693 179.76679111 C183.62894629 185.10871624 182.72230912 190.45074378 181.81565356 195.79276824 C178.92030006 212.85145519 176.02453658 229.91007199 173.12525439 246.96809173 C169.37028695 269.06225814 165.62698872 291.15830923 161.90610558 313.25824094 C160.47356114 321.76456107 159.03393979 330.26968242 157.5927484 338.77454162 C156.60678839 344.59484198 155.6242826 350.4156749 154.65046191 356.2380197 C153.76406796 361.53729826 152.86829953 366.83490034 151.96479869 372.13128829 C151.647118 374.00371599 151.3329134 375.87673786 151.02272487 377.75042129 C146.23379868 406.6479308 146.23379868 406.6479308 134.4026897 415.76084685 C126.78005036 420.83215012 120.36881226 423.00661755 111.11753345 422.8428781 C110.43368579 422.83385467 109.74983813 422.82483123 109.04526782 422.81553435 C107.38170058 422.79226768 105.71831713 422.75640977 104.05503345 422.7178781 C104.07049464 421.81238219 104.07049464 421.81238219 104.08626819 420.88859344 C105.27321442 350.50499181 105.70665307 280.10989644 106.05503345 209.7178781 C106.05892046 208.93712196 106.06280747 208.15636582 106.06681228 207.35195041 C106.16291084 187.99105283 106.24225234 168.63020581 106.27803779 149.26909423 C106.28075625 147.79969064 106.28347833 146.33028705 106.2862041 144.86088347 C106.2875328 144.13879793 106.28886149 143.41671239 106.29023045 142.67274547 C106.30022444 137.62674267 106.31782957 132.58080192 106.33875537 127.53483367 C106.36658331 120.78290255 106.37837932 114.03112966 106.37917018 107.2791326 C106.38179118 104.81296686 106.38946027 102.34680035 106.40263438 99.8806684 C106.41968661 96.51040878 106.41791329 93.14065361 106.41147876 89.77036834 C106.42530518 88.32168837 106.42530518 88.32168837 106.43941092 86.84374213 C106.34876818 71.96347556 100.61475211 58.60821005 90.33628345 47.90147185 C76.12386402 34.2974608 59.38046781 31.60724591 40.3751018 31.51255584 C39.1350841 31.50265624 37.8950664 31.49275664 36.61747241 31.48255706 C33.24415134 31.45652885 29.8708519 31.43460203 26.49749327 31.41455507 C22.96208822 31.39255653 19.42672423 31.36523627 15.89135242 31.33849883 C9.20868167 31.28875813 2.52598791 31.24375092 -4.15672749 31.20047647 C-11.76987772 31.15094403 -19.38298671 31.09608571 -26.99609697 31.04079688 C-42.64568199 30.92726304 -58.29530504 30.82036272 -73.94496655 30.7178781 C-73.6396527 29.11977023 -73.33037288 27.52241971 -73.01942945 25.92539763 C-72.84762662 25.03579345 -72.67582379 24.14618926 -72.49881482 23.22962737 C-70.37684371 13.60630686 -64.90335193 6.30625362 -56.94496655 0.7178781 C-39.99420131 -9.53628853 -18.23153452 -3.22728444 0 0 Z " fill="#FFFFFF" transform="translate(247.94496655464172,36.282121896743774)"/>
<path d="M0 0 C10.47848727 3.27378051 20.8050822 3.09947019 31 -1.0625 C31.68835938 -1.42472656 32.37671875 -1.78695312 33.0859375 -2.16015625 C36.2579002 -3.65551009 38.79745624 -3.10881845 42 -2.0625 C57.37146968 4.72168237 68.9725715 17.71512892 75.3046875 33.109375 C77.24633851 38.49243504 78.63625632 43.21119313 78 48.9375 C76.34330939 50.59419061 74.38991591 50.07061437 72.10975647 50.07794189 C71.05108871 50.08365204 69.99242096 50.08936218 68.90167236 50.09524536 C67.73021667 50.09636322 66.55876099 50.09748108 65.35180664 50.09863281 C63.51298164 50.10608017 63.51298164 50.10608017 61.63700867 50.11367798 C58.26512438 50.12581132 54.89330231 50.13325105 51.52140355 50.13768864 C49.41695526 50.14061554 47.31251247 50.14471959 45.20806694 50.14919281 C38.62997527 50.16287288 32.0518961 50.17253731 25.47379118 50.1763947 C17.86858487 50.18087833 10.26355803 50.19843807 2.65840632 50.2273953 C-3.21251324 50.24897694 -9.08338217 50.25909707 -14.95434099 50.26043582 C-18.46443701 50.2614863 -21.97436445 50.26744517 -25.48441887 50.28525543 C-29.39714286 50.30472208 -33.30964069 50.30046122 -37.22241211 50.29394531 C-38.39184357 50.3031601 -39.56127502 50.31237488 -40.7661438 50.3218689 C-42.35837517 50.31351517 -42.35837517 50.31351517 -43.98277283 50.30499268 C-44.90879775 50.30645924 -45.83482267 50.3079258 -46.78890896 50.3094368 C-47.518569 50.18669765 -48.24822905 50.06395851 -49 49.9375 C-51 46.9375 -51 46.9375 -50.93359375 44.87890625 C-47.43952171 28.12386787 -38.79795347 14.22716701 -25 3.9375 C-15.35383019 -2.30748493 -10.83317264 -3.85517241 0 0 Z " fill="#FFFFFF" transform="translate(187,203.0625)"/>
<path d="M0 0 C8.50687116 5.10412269 13.25731984 11.45221479 16.0234375 20.94921875 C17.71252159 29.06000936 16.21213457 37.32044936 11.9609375 44.39453125 C6.67584514 51.67058306 0.37806288 56.2706154 -8.5625 57.9375 C-18.63402075 58.79595535 -25.97522931 57.42728244 -33.8125 50.875 C-40.1698705 44.82412793 -44.1089245 37.60719371 -44.8125 28.8125 C-44.1293024 18.22293715 -39.86899023 10.70770567 -32.125 3.625 C-23.63554554 -3.80061305 -10.03792284 -4.66486292 0 0 Z " fill="#FFFFFF" transform="translate(214.5625,133.0625)"/>
</svg>
